{
  "accessors": [
    {
      "bufferView": 2,
      "componentType": 5126,
      "count": 2209,
      "max": [
        0.32688701152801514,
        0.44363898038864136,
        0.6348980069160461
      ],
      "min": [
        0.0,
        0.0,
        0.0
      ],
      "type": "VEC3"
    },
    {
      "bufferView": 2,
      "byteOffset": 26508,
      "componentType": 5126,
      "count": 2209,
      "max": [
        0.9922506213188171,
        0.9999879598617554,
        0.999914288520813
      ],
      "min": [
        -0.9926210641860962,
        -0.16689570248126984,
        -0.5864097476005554
      ],
      "type": "VEC3"
    },
    {
      "bufferView": 1,
      "componentType": 5126,
      "count": 2209,
      "max": [
        0.6794000267982483,
        0.9645000100135803
      ],
      "min": [
        0.3336000144481659,
        0.021800000220537186
      ],
      "type": "VEC2"
    },
    {
      "bufferView": 0,
      "componentType": 5125,
      "count": 12624,
      "type": "SCALAR"
    }
  ],
  "asset": {
    "extras": {
      "author": "YouniqueĪdeaStudio (https://sketchfab.com/sinnervoncrawsz)",
      "license": "CC-BY-4.0 (http://creativecommons.org/licenses/by/4.0/)",
      "source": "https://sketchfab.com/3d-models/leaf-51137fac487d4174b6d5f3bbf9a15c78",
      "title": "LEAF"
    },
    "generator": "Sketchfab-12.66.0",
    "version": "2.0"
  },
  "bufferViews": [
    {
      "buffer": 0,
      "byteLength": 50496,
      "name": "floatBufferViews",
      "target": 34963
    },
    {
      "buffer": 0,
      "byteLength": 17672,
      "byteOffset": 50496,
      "byteStride": 8,
      "name": "floatBufferViews",
      "target": 34962
    },
    {
      "buffer": 0,
      "byteLength": 53016,
      "byteOffset": 68168,
      "byteStride": 12,
      "name": "floatBufferViews",
      "target": 34962
    }
  ],
  "buffers": [
    {
      "byteLength": 121184,
      "uri": "scene.bin"
    }
  ],
  "materials": [
    {
      "doubleSided": true,
      "name": "Material.001",
      "pbrMetallicRoughness": {
        "baseColorFactor": [
          0.007987,
          0.064009,
          0.001954,
          1.0
        ],
        "metallicFactor": 0.0,
        "roughnessFactor": 0.7406502853280361
      }
    }
  ],
  "meshes": [
    {
      "name": "Object_0",
      "primitives": [
        {
          "attributes": {
            "NORMAL": 1,
            "POSITION": 0,
            "TEXCOORD_0": 2
          },
          "indices": 3,
          "material": 0,
          "mode": 4
        }
      ]
    }
  ],
  "nodes": [
    {
      "children": [
        1
      ],
      "matrix": [
        0.14073226372747882,
        -0.19180819009379135,
        -1.6177875147538867e-17,
        0.0,
        0.16828307611922,
        0.12347156880643342,
        -0.1141557372250421,
        0.0,
        0.09203906893483449,
        0.06753031034521757,
        0.20872091057592004,
        0.0,
        -0.9664134979248047,
        -1.3827711343765259,
        -0.31121778488159213,
        1.0
      ],
      "name": "Sketchfab_model"
    },
    {
      "children": [
        2
      ],
      "matrix": [
        1.0,
        0.0,
        0.0,
        0.0,
        0.0,
        1.0,
        0.0,
        0.0,
        0.0,
        0.0,
        1.0,
        0.0,
        -1.1123290061950684,
        0.7020589709281921,
        -0.5104590058326721,
        1.0
      ],
      "name": "LEAF.obj.cleaner.materialmerger.gles"
    },
    {
      "children": [
        3
      ],
      "name": "Object_2"
    },
    {
      "mesh": 0,
      "name": "Object_3"
    }
  ],
  "scene": 0,
  "scenes": [
    {
      "name": "Sketchfab_Scene",
      "nodes": [
        0
      ]
    }
  ]
}
